{
  "asset": {
    "version": "2.0",
    "generator": "Foundry scripts/m20/make_scene.py"
  },
  "scene": 0,
  "scenes": [
    {
      "nodes": [
        0,
        1,
        2
      ]
    }
  ],
  "nodes": [
    {
      "name": "StepsAndPlatform",
      "mesh": 0
    },
    {
      "name": "GentleRamp",
      "mesh": 1,
      "translation": [
        -0.16510028908194654,
        0.281873844259267,
        -2.1
      ],
      "rotation": [
        0,
        0,
        -0.21643961393810288,
        0.9762960071199334
      ]
    },
    {
      "name": "SteepRamp",
      "mesh": 2,
      "translation": [
        -2.706320779422867,
        0.2885284712729791,
        -0.7
      ],
      "rotation": [
        0,
        0,
        -0.4617486132350339,
        0.8870108331782217
      ]
    }
  ],
  "meshes": [
    {
      "name": "stairs",
      "primitives": [
        {
          "attributes": {
            "POSITION": 0,
            "NORMAL": 1,
            "TEXCOORD_0": 2,
            "COLOR_0": 3
          },
          "indices": 4,
          "material": 0
        }
      ]
    },
    {
      "name": "GentleRamp",
      "primitives": [
        {
          "attributes": {
            "POSITION": 5,
            "NORMAL": 6,
            "TEXCOORD_0": 7,
            "COLOR_0": 8
          },
          "indices": 9,
          "material": 1
        }
      ]
    },
    {
      "name": "SteepRamp",
      "primitives": [
        {
          "attributes": {
            "POSITION": 10,
            "NORMAL": 11,
            "TEXCOORD_0": 12,
            "COLOR_0": 13
          },
          "indices": 14,
          "material": 2
        }
      ]
    }
  ],
  "materials": [
    {
      "name": "Steps",
      "pbrMetallicRoughness": {
        "baseColorFactor": [
          0.28,
          0.42,
          0.55,
          1
        ],
        "metallicFactor": 0.0,
        "roughnessFactor": 0.7
      }
    },
    {
      "name": "Gentle",
      "pbrMetallicRoughness": {
        "baseColorFactor": [
          0.25,
          0.5,
          0.3,
          1
        ],
        "metallicFactor": 0.0,
        "roughnessFactor": 0.7
      }
    },
    {
      "name": "Steep",
      "pbrMetallicRoughness": {
        "baseColorFactor": [
          0.65,
          0.25,
          0.15,
          1
        ],
        "metallicFactor": 0.0,
        "roughnessFactor": 0.7
      }
    }
  ],
  "samplers": [
    {
      "magFilter": 9729,
      "minFilter": 9987,
      "wrapS": 10497,
      "wrapT": 10497
    }
  ],
  "accessors": [
    {
      "bufferView": 0,
      "componentType": 5126,
      "count": 80,
      "type": "VEC3",
      "min": [
        -1.8,
        0.0,
        -2.6
      ],
      "max": [
        -0.8,
        0.6,
        -0.4
      ]
    },
    {
      "bufferView": 1,
      "componentType": 5126,
      "count": 80,
      "type": "VEC3"
    },
    {
      "bufferView": 2,
      "componentType": 5126,
      "count": 80,
      "type": "VEC2"
    },
    {
      "bufferView": 3,
      "componentType": 5121,
      "count": 80,
      "type": "VEC4",
      "normalized": true
    },
    {
      "bufferView": 4,
      "componentType": 5123,
      "count": 120,
      "type": "SCALAR"
    },
    {
      "bufferView": 5,
      "componentType": 5126,
      "count": 24,
      "type": "VEC3",
      "min": [
        -0.7098604749457494,
        -0.02,
        -0.5
      ],
      "max": [
        0.7098604749457494,
        0.02,
        0.5
      ]
    },
    {
      "bufferView": 6,
      "componentType": 5126,
      "count": 24,
      "type": "VEC3"
    },
    {
      "bufferView": 7,
      "componentType": 5126,
      "count": 24,
      "type": "VEC2"
    },
    {
      "bufferView": 8,
      "componentType": 5121,
      "count": 24,
      "type": "VEC4",
      "normalized": true
    },
    {
      "bufferView": 9,
      "componentType": 5123,
      "count": 36,
      "type": "SCALAR"
    },
    {
      "bufferView": 10,
      "componentType": 5126,
      "count": 24,
      "type": "VEC3",
      "min": [
        -0.36623237662843683,
        -0.02,
        -0.5
      ],
      "max": [
        0.36623237662843683,
        0.02,
        0.5
      ]
    },
    {
      "bufferView": 11,
      "componentType": 5126,
      "count": 24,
      "type": "VEC3"
    },
    {
      "bufferView": 12,
      "componentType": 5126,
      "count": 24,
      "type": "VEC2"
    },
    {
      "bufferView": 13,
      "componentType": 5121,
      "count": 24,
      "type": "VEC4",
      "normalized": true
    },
    {
      "bufferView": 14,
      "componentType": 5123,
      "count": 36,
      "type": "SCALAR"
    }
  ],
  "bufferViews": [
    {
      "buffer": 0,
      "byteOffset": 0,
      "byteLength": 960,
      "target": 34962
    },
    {
      "buffer": 0,
      "byteOffset": 960,
      "byteLength": 960,
      "target": 34962
    },
    {
      "buffer": 0,
      "byteOffset": 1920,
      "byteLength": 640,
      "target": 34962
    },
    {
      "buffer": 0,
      "byteOffset": 2560,
      "byteLength": 320,
      "target": 34962
    },
    {
      "buffer": 0,
      "byteOffset": 2880,
      "byteLength": 240,
      "target": 34963
    },
    {
      "buffer": 0,
      "byteOffset": 3120,
      "byteLength": 288,
      "target": 34962
    },
    {
      "buffer": 0,
      "byteOffset": 3408,
      "byteLength": 288,
      "target": 34962
    },
    {
      "buffer": 0,
      "byteOffset": 3696,
      "byteLength": 192,
      "target": 34962
    },
    {
      "buffer": 0,
      "byteOffset": 3888,
      "byteLength": 96,
      "target": 34962
    },
    {
      "buffer": 0,
      "byteOffset": 3984,
      "byteLength": 72,
      "target": 34963
    },
    {
      "buffer": 0,
      "byteOffset": 4056,
      "byteLength": 288,
      "target": 34962
    },
    {
      "buffer": 0,
      "byteOffset": 4344,
      "byteLength": 288,
      "target": 34962
    },
    {
      "buffer": 0,
      "byteOffset": 4632,
      "byteLength": 192,
      "target": 34962
    },
    {
      "buffer": 0,
      "byteOffset": 4824,
      "byteLength": 96,
      "target": 34962
    },
    {
      "buffer": 0,
      "byteOffset": 4920,
      "byteLength": 72,
      "target": 34963
    }
  ],
  "buffers": [
    {
      "uri": "course.bin",
      "byteLength": 4992
    }
  ]
}
