{
  "asset": {
    "version": "2.0",
    "generator": "Foundry scripts/m20/make_scene.py"
  },
  "scene": 0,
  "scenes": [
    {
      "nodes": [
        0,
        1,
        2,
        3,
        4,
        9,
        10,
        11,
        12,
        13,
        14
      ]
    }
  ],
  "nodes": [
    {
      "name": "Floor",
      "mesh": 0
    },
    {
      "name": "WallNorth",
      "mesh": 1,
      "translation": [
        0,
        0,
        -3
      ]
    },
    {
      "name": "WallSouth",
      "mesh": 1,
      "translation": [
        0,
        0,
        3
      ],
      "rotation": [
        0.0,
        1.0,
        0.0,
        6.123233995736766e-17
      ]
    },
    {
      "name": "WallWest",
      "mesh": 1,
      "translation": [
        -3,
        0,
        0
      ],
      "rotation": [
        0.0,
        0.7071067811865475,
        0.0,
        0.7071067811865476
      ]
    },
    {
      "name": "WallEast",
      "mesh": 1,
      "translation": [
        3,
        0,
        0
      ],
      "rotation": [
        0.0,
        -0.7071067811865475,
        0.0,
        0.7071067811865476
      ]
    },
    {
      "name": "Leg0",
      "mesh": 2,
      "translation": [
        -0.62,
        -0.39,
        -0.38
      ]
    },
    {
      "name": "Leg1",
      "mesh": 2,
      "translation": [
        0.62,
        -0.39,
        -0.38
      ]
    },
    {
      "name": "Leg2",
      "mesh": 2,
      "translation": [
        -0.62,
        -0.39,
        0.38
      ]
    },
    {
      "name": "Leg3",
      "mesh": 2,
      "translation": [
        0.62,
        -0.39,
        0.38
      ]
    },
    {
      "name": "TableTop",
      "mesh": 3,
      "translation": [
        0,
        0.75,
        0
      ],
      "children": [
        5,
        6,
        7,
        8
      ]
    },
    {
      "name": "Crate",
      "mesh": 4,
      "translation": [
        1.9,
        0.35,
        -1.0
      ],
      "rotation": [
        0.0,
        0.24740395925452294,
        0.0,
        0.9689124217106447
      ]
    },
    {
      "name": "CrateMirrored",
      "mesh": 4,
      "translation": [
        1.9,
        0.35,
        -2.0
      ],
      "rotation": [
        0.0,
        0.24740395925452294,
        0.0,
        0.9689124217106447
      ],
      "scale": [
        -1,
        1,
        1
      ]
    },
    {
      "name": "Pot",
      "mesh": 5,
      "translation": [
        -1.9,
        0.16,
        1.7
      ]
    },
    {
      "name": "Plant",
      "mesh": 6,
      "translation": [
        -1.9,
        0.32,
        1.7
      ]
    },
    {
      "name": "Glass",
      "mesh": 7,
      "translation": [
        0,
        0,
        1.3
      ]
    }
  ],
  "meshes": [
    {
      "name": "floor",
      "primitives": [
        {
          "attributes": {
            "POSITION": 0,
            "NORMAL": 1,
            "TEXCOORD_0": 2,
            "COLOR_0": 3
          },
          "indices": 4,
          "material": 0
        }
      ]
    },
    {
      "name": "wall",
      "primitives": [
        {
          "attributes": {
            "POSITION": 5,
            "NORMAL": 6,
            "TEXCOORD_0": 7,
            "COLOR_0": 8
          },
          "indices": 9,
          "material": 1
        }
      ]
    },
    {
      "name": "leg",
      "primitives": [
        {
          "attributes": {
            "POSITION": 10,
            "NORMAL": 11,
            "TEXCOORD_0": 12,
            "COLOR_0": 13
          },
          "indices": 14,
          "material": 2
        }
      ]
    },
    {
      "name": "tabletop",
      "primitives": [
        {
          "attributes": {
            "POSITION": 15,
            "NORMAL": 16,
            "TEXCOORD_0": 17,
            "COLOR_0": 18
          },
          "indices": 19,
          "material": 2
        }
      ]
    },
    {
      "name": "crate",
      "primitives": [
        {
          "attributes": {
            "POSITION": 20,
            "NORMAL": 21,
            "TEXCOORD_0": 22,
            "COLOR_0": 23
          },
          "indices": 24,
          "material": 3
        }
      ]
    },
    {
      "name": "pot",
      "primitives": [
        {
          "attributes": {
            "POSITION": 25,
            "NORMAL": 26,
            "TEXCOORD_0": 27,
            "COLOR_0": 28
          },
          "indices": 29,
          "material": 4
        }
      ]
    },
    {
      "name": "leaves",
      "primitives": [
        {
          "attributes": {
            "POSITION": 30,
            "NORMAL": 31,
            "TEXCOORD_0": 32,
            "COLOR_0": 33
          },
          "indices": 34,
          "material": 5
        }
      ]
    },
    {
      "name": "pane",
      "primitives": [
        {
          "attributes": {
            "POSITION": 35,
            "NORMAL": 36
          },
          "indices": 37,
          "material": 6
        }
      ]
    }
  ],
  "materials": [
    {
      "name": "Floor",
      "pbrMetallicRoughness": {
        "baseColorFactor": [
          1,
          1,
          1,
          1
        ],
        "baseColorTexture": {
          "index": 0
        }
      },
      "extensions": {
        "KHR_materials_unlit": {}
      }
    },
    {
      "name": "Brick",
      "pbrMetallicRoughness": {
        "baseColorFactor": [
          1,
          1,
          1,
          1
        ],
        "baseColorTexture": {
          "index": 1
        }
      },
      "extensions": {
        "KHR_materials_unlit": {}
      }
    },
    {
      "name": "Wood",
      "pbrMetallicRoughness": {
        "baseColorFactor": [
          0.42,
          0.25,
          0.12,
          1.0
        ]
      },
      "extensions": {
        "KHR_materials_unlit": {}
      }
    },
    {
      "name": "Crate",
      "pbrMetallicRoughness": {
        "baseColorFactor": [
          1,
          1,
          1,
          1
        ],
        "baseColorTexture": {
          "index": 2
        }
      },
      "extensions": {
        "KHR_materials_unlit": {}
      }
    },
    {
      "name": "Pot",
      "pbrMetallicRoughness": {
        "baseColorFactor": [
          0.55,
          0.22,
          0.1,
          1.0
        ]
      },
      "extensions": {
        "KHR_materials_unlit": {}
      }
    },
    {
      "name": "Leaf",
      "pbrMetallicRoughness": {
        "baseColorFactor": [
          1,
          1,
          1,
          1
        ],
        "baseColorTexture": {
          "index": 3
        }
      },
      "extensions": {
        "KHR_materials_unlit": {}
      },
      "alphaMode": "MASK",
      "alphaCutoff": 0.5,
      "doubleSided": true
    },
    {
      "name": "Glass",
      "pbrMetallicRoughness": {
        "baseColorFactor": [
          0.55,
          0.75,
          0.85,
          0.35
        ]
      },
      "extensions": {
        "KHR_materials_unlit": {}
      },
      "alphaMode": "BLEND",
      "doubleSided": true
    }
  ],
  "textures": [
    {
      "sampler": 0,
      "source": 0
    },
    {
      "sampler": 0,
      "source": 1
    },
    {
      "sampler": 0,
      "source": 2
    },
    {
      "sampler": 0,
      "source": 3
    }
  ],
  "images": [
    {
      "uri": "checker.png"
    },
    {
      "uri": "brick.png"
    },
    {
      "uri": "crate.png"
    },
    {
      "uri": "leaf.png"
    }
  ],
  "samplers": [
    {
      "magFilter": 9729,
      "minFilter": 9987,
      "wrapS": 10497,
      "wrapT": 10497
    }
  ],
  "accessors": [
    {
      "bufferView": 0,
      "componentType": 5126,
      "count": 4,
      "type": "VEC3",
      "min": [
        -3.0,
        0,
        -3.0
      ],
      "max": [
        3.0,
        0,
        3.0
      ]
    },
    {
      "bufferView": 1,
      "componentType": 5126,
      "count": 4,
      "type": "VEC3"
    },
    {
      "bufferView": 2,
      "componentType": 5126,
      "count": 4,
      "type": "VEC2"
    },
    {
      "bufferView": 3,
      "componentType": 5121,
      "count": 4,
      "type": "VEC4",
      "normalized": true
    },
    {
      "bufferView": 4,
      "componentType": 5123,
      "count": 6,
      "type": "SCALAR"
    },
    {
      "bufferView": 5,
      "componentType": 5126,
      "count": 4,
      "type": "VEC3",
      "min": [
        -3.0,
        0,
        0
      ],
      "max": [
        3.0,
        1.2,
        0
      ]
    },
    {
      "bufferView": 6,
      "componentType": 5126,
      "count": 4,
      "type": "VEC3"
    },
    {
      "bufferView": 7,
      "componentType": 5126,
      "count": 4,
      "type": "VEC2"
    },
    {
      "bufferView": 8,
      "componentType": 5121,
      "count": 4,
      "type": "VEC4",
      "normalized": true
    },
    {
      "bufferView": 9,
      "componentType": 5123,
      "count": 6,
      "type": "SCALAR"
    },
    {
      "bufferView": 10,
      "componentType": 5126,
      "count": 24,
      "type": "VEC3",
      "min": [
        -0.03,
        -0.36,
        -0.03
      ],
      "max": [
        0.03,
        0.36,
        0.03
      ]
    },
    {
      "bufferView": 11,
      "componentType": 5126,
      "count": 24,
      "type": "VEC3"
    },
    {
      "bufferView": 12,
      "componentType": 5126,
      "count": 24,
      "type": "VEC2"
    },
    {
      "bufferView": 13,
      "componentType": 5121,
      "count": 24,
      "type": "VEC4",
      "normalized": true
    },
    {
      "bufferView": 14,
      "componentType": 5123,
      "count": 36,
      "type": "SCALAR"
    },
    {
      "bufferView": 15,
      "componentType": 5126,
      "count": 24,
      "type": "VEC3",
      "min": [
        -0.7,
        -0.03,
        -0.45
      ],
      "max": [
        0.7,
        0.03,
        0.45
      ]
    },
    {
      "bufferView": 16,
      "componentType": 5126,
      "count": 24,
      "type": "VEC3"
    },
    {
      "bufferView": 17,
      "componentType": 5126,
      "count": 24,
      "type": "VEC2"
    },
    {
      "bufferView": 18,
      "componentType": 5121,
      "count": 24,
      "type": "VEC4",
      "normalized": true
    },
    {
      "bufferView": 19,
      "componentType": 5123,
      "count": 36,
      "type": "SCALAR"
    },
    {
      "bufferView": 20,
      "componentType": 5126,
      "count": 24,
      "type": "VEC3",
      "min": [
        -0.35,
        -0.35,
        -0.35
      ],
      "max": [
        0.35,
        0.35,
        0.35
      ]
    },
    {
      "bufferView": 21,
      "componentType": 5126,
      "count": 24,
      "type": "VEC3"
    },
    {
      "bufferView": 22,
      "componentType": 5126,
      "count": 24,
      "type": "VEC2"
    },
    {
      "bufferView": 23,
      "componentType": 5121,
      "count": 24,
      "type": "VEC4",
      "normalized": true
    },
    {
      "bufferView": 24,
      "componentType": 5123,
      "count": 36,
      "type": "SCALAR"
    },
    {
      "bufferView": 25,
      "componentType": 5126,
      "count": 24,
      "type": "VEC3",
      "min": [
        -0.18,
        -0.16,
        -0.18
      ],
      "max": [
        0.18,
        0.16,
        0.18
      ]
    },
    {
      "bufferView": 26,
      "componentType": 5126,
      "count": 24,
      "type": "VEC3"
    },
    {
      "bufferView": 27,
      "componentType": 5126,
      "count": 24,
      "type": "VEC2"
    },
    {
      "bufferView": 28,
      "componentType": 5121,
      "count": 24,
      "type": "VEC4",
      "normalized": true
    },
    {
      "bufferView": 29,
      "componentType": 5123,
      "count": 36,
      "type": "SCALAR"
    },
    {
      "bufferView": 30,
      "componentType": 5126,
      "count": 12,
      "type": "VEC3",
      "min": [
        -0.45,
        0,
        -0.38971143170299744
      ],
      "max": [
        0.45,
        0.9,
        0.38971143170299744
      ]
    },
    {
      "bufferView": 31,
      "componentType": 5126,
      "count": 12,
      "type": "VEC3"
    },
    {
      "bufferView": 32,
      "componentType": 5126,
      "count": 12,
      "type": "VEC2"
    },
    {
      "bufferView": 33,
      "componentType": 5121,
      "count": 12,
      "type": "VEC4",
      "normalized": true
    },
    {
      "bufferView": 34,
      "componentType": 5123,
      "count": 18,
      "type": "SCALAR"
    },
    {
      "bufferView": 35,
      "componentType": 5126,
      "count": 4,
      "type": "VEC3",
      "min": [
        -0.6,
        0,
        0
      ],
      "max": [
        0.6,
        1.0,
        0
      ]
    },
    {
      "bufferView": 36,
      "componentType": 5126,
      "count": 4,
      "type": "VEC3"
    },
    {
      "bufferView": 37,
      "componentType": 5123,
      "count": 6,
      "type": "SCALAR"
    }
  ],
  "bufferViews": [
    {
      "buffer": 0,
      "byteOffset": 0,
      "byteLength": 48,
      "target": 34962
    },
    {
      "buffer": 0,
      "byteOffset": 48,
      "byteLength": 48,
      "target": 34962
    },
    {
      "buffer": 0,
      "byteOffset": 96,
      "byteLength": 32,
      "target": 34962
    },
    {
      "buffer": 0,
      "byteOffset": 128,
      "byteLength": 16,
      "target": 34962
    },
    {
      "buffer": 0,
      "byteOffset": 144,
      "byteLength": 12,
      "target": 34963
    },
    {
      "buffer": 0,
      "byteOffset": 156,
      "byteLength": 48,
      "target": 34962
    },
    {
      "buffer": 0,
      "byteOffset": 204,
      "byteLength": 48,
      "target": 34962
    },
    {
      "buffer": 0,
      "byteOffset": 252,
      "byteLength": 32,
      "target": 34962
    },
    {
      "buffer": 0,
      "byteOffset": 284,
      "byteLength": 16,
      "target": 34962
    },
    {
      "buffer": 0,
      "byteOffset": 300,
      "byteLength": 12,
      "target": 34963
    },
    {
      "buffer": 0,
      "byteOffset": 312,
      "byteLength": 288,
      "target": 34962
    },
    {
      "buffer": 0,
      "byteOffset": 600,
      "byteLength": 288,
      "target": 34962
    },
    {
      "buffer": 0,
      "byteOffset": 888,
      "byteLength": 192,
      "target": 34962
    },
    {
      "buffer": 0,
      "byteOffset": 1080,
      "byteLength": 96,
      "target": 34962
    },
    {
      "buffer": 0,
      "byteOffset": 1176,
      "byteLength": 72,
      "target": 34963
    },
    {
      "buffer": 0,
      "byteOffset": 1248,
      "byteLength": 288,
      "target": 34962
    },
    {
      "buffer": 0,
      "byteOffset": 1536,
      "byteLength": 288,
      "target": 34962
    },
    {
      "buffer": 0,
      "byteOffset": 1824,
      "byteLength": 192,
      "target": 34962
    },
    {
      "buffer": 0,
      "byteOffset": 2016,
      "byteLength": 96,
      "target": 34962
    },
    {
      "buffer": 0,
      "byteOffset": 2112,
      "byteLength": 72,
      "target": 34963
    },
    {
      "buffer": 0,
      "byteOffset": 2184,
      "byteLength": 288,
      "target": 34962
    },
    {
      "buffer": 0,
      "byteOffset": 2472,
      "byteLength": 288,
      "target": 34962
    },
    {
      "buffer": 0,
      "byteOffset": 2760,
      "byteLength": 192,
      "target": 34962
    },
    {
      "buffer": 0,
      "byteOffset": 2952,
      "byteLength": 96,
      "target": 34962
    },
    {
      "buffer": 0,
      "byteOffset": 3048,
      "byteLength": 72,
      "target": 34963
    },
    {
      "buffer": 0,
      "byteOffset": 3120,
      "byteLength": 288,
      "target": 34962
    },
    {
      "buffer": 0,
      "byteOffset": 3408,
      "byteLength": 288,
      "target": 34962
    },
    {
      "buffer": 0,
      "byteOffset": 3696,
      "byteLength": 192,
      "target": 34962
    },
    {
      "buffer": 0,
      "byteOffset": 3888,
      "byteLength": 96,
      "target": 34962
    },
    {
      "buffer": 0,
      "byteOffset": 3984,
      "byteLength": 72,
      "target": 34963
    },
    {
      "buffer": 0,
      "byteOffset": 4056,
      "byteLength": 144,
      "target": 34962
    },
    {
      "buffer": 0,
      "byteOffset": 4200,
      "byteLength": 144,
      "target": 34962
    },
    {
      "buffer": 0,
      "byteOffset": 4344,
      "byteLength": 96,
      "target": 34962
    },
    {
      "buffer": 0,
      "byteOffset": 4440,
      "byteLength": 48,
      "target": 34962
    },
    {
      "buffer": 0,
      "byteOffset": 4488,
      "byteLength": 36,
      "target": 34963
    },
    {
      "buffer": 0,
      "byteOffset": 4524,
      "byteLength": 48,
      "target": 34962
    },
    {
      "buffer": 0,
      "byteOffset": 4572,
      "byteLength": 48,
      "target": 34962
    },
    {
      "buffer": 0,
      "byteOffset": 4620,
      "byteLength": 12,
      "target": 34963
    }
  ],
  "extensionsUsed": [
    "KHR_materials_unlit"
  ],
  "buffers": [
    {
      "uri": "room.bin",
      "byteLength": 4632
    }
  ]
}
