{
  "asset": {
    "version": "2.0",
    "generator": "Foundry M26"
  },
  "scene": 0,
  "scenes": [
    {
      "nodes": [
        0
      ]
    }
  ],
  "nodes": [
    {
      "name": "Beacon",
      "mesh": 0
    }
  ],
  "meshes": [
    {
      "primitives": [
        {
          "attributes": {
            "POSITION": 0,
            "NORMAL": 1
          },
          "indices": 2,
          "material": 0
        }
      ]
    }
  ],
  "materials": [
    {
      "name": "Beacon",
      "pbrMetallicRoughness": {
        "baseColorFactor": [
          0.5,
          0.45,
          0.4,
          1
        ],
        "metallicFactor": 0,
        "roughnessFactor": 0.8
      }
    }
  ],
  "buffers": [
    {
      "uri": "beacon.bin",
      "byteLength": 1944
    }
  ],
  "bufferViews": [
    {
      "buffer": 0,
      "byteOffset": 0,
      "byteLength": 864
    },
    {
      "buffer": 0,
      "byteOffset": 864,
      "byteLength": 864
    },
    {
      "buffer": 0,
      "byteOffset": 1728,
      "byteLength": 216
    }
  ],
  "accessors": [
    {
      "bufferView": 0,
      "componentType": 5126,
      "count": 72,
      "type": "VEC3",
      "min": [
        -0.35,
        0.0,
        -0.35
      ],
      "max": [
        0.35,
        1.0,
        0.35
      ]
    },
    {
      "bufferView": 1,
      "componentType": 5126,
      "count": 72,
      "type": "VEC3"
    },
    {
      "bufferView": 2,
      "componentType": 5123,
      "count": 108,
      "type": "SCALAR"
    }
  ]
}
