{
  "asset": {
    "version": "2.0",
    "generator": "Foundry M26"
  },
  "scene": 0,
  "scenes": [
    {
      "nodes": [
        0,
        19
      ]
    }
  ],
  "nodes": [
    {
      "name": "pelvis",
      "translation": [
        0,
        0.85,
        0
      ],
      "children": [
        1,
        13,
        16
      ]
    },
    {
      "name": "spine",
      "translation": [
        0,
        0.2500000000000001,
        0
      ],
      "children": [
        2
      ]
    },
    {
      "name": "chest",
      "translation": [
        0,
        0.25,
        0
      ],
      "children": [
        3,
        5,
        9
      ]
    },
    {
      "name": "neck",
      "translation": [
        0,
        0.1299999999999999,
        0
      ],
      "children": [
        4
      ]
    },
    {
      "name": "head",
      "translation": [
        0,
        0.1200000000000001,
        0
      ]
    },
    {
      "name": "shoulder.L",
      "translation": [
        -0.25,
        0.0,
        0
      ],
      "children": [
        6
      ]
    },
    {
      "name": "elbow.L",
      "translation": [
        -0.04999999999999999,
        -0.30000000000000004,
        0
      ],
      "children": [
        7
      ]
    },
    {
      "name": "wrist.L",
      "translation": [
        0.0,
        -0.25,
        0
      ],
      "children": [
        8
      ]
    },
    {
      "name": "hand.L",
      "translation": [
        0.0,
        -0.06000000000000005,
        0
      ]
    },
    {
      "name": "shoulder.R",
      "translation": [
        0.25,
        0.0,
        0
      ],
      "children": [
        10
      ]
    },
    {
      "name": "elbow.R",
      "translation": [
        0.04999999999999999,
        -0.30000000000000004,
        0
      ],
      "children": [
        11
      ]
    },
    {
      "name": "wrist.R",
      "translation": [
        0.0,
        -0.25,
        0
      ],
      "children": [
        12
      ]
    },
    {
      "name": "hand.R",
      "translation": [
        0.0,
        -0.06000000000000005,
        0
      ]
    },
    {
      "name": "hip.L",
      "translation": [
        -0.12,
        0.0,
        0
      ],
      "children": [
        14
      ]
    },
    {
      "name": "knee.L",
      "translation": [
        0.0,
        -0.39999999999999997,
        0
      ],
      "children": [
        15
      ]
    },
    {
      "name": "foot.L",
      "translation": [
        0.0,
        -0.37,
        0
      ]
    },
    {
      "name": "hip.R",
      "translation": [
        0.12,
        0.0,
        0
      ],
      "children": [
        17
      ]
    },
    {
      "name": "knee.R",
      "translation": [
        0.0,
        -0.39999999999999997,
        0
      ],
      "children": [
        18
      ]
    },
    {
      "name": "foot.R",
      "translation": [
        0.0,
        -0.37,
        0
      ]
    },
    {
      "name": "Warden",
      "mesh": 0,
      "skin": 0
    }
  ],
  "skins": [
    {
      "joints": [
        0,
        1,
        2,
        3,
        4,
        5,
        6,
        7,
        8,
        9,
        10,
        11,
        12,
        13,
        14,
        15,
        16,
        17,
        18
      ],
      "skeleton": 0,
      "inverseBindMatrices": 5
    }
  ],
  "animations": [
    {
      "name": "idle",
      "samplers": [
        {
          "input": 6,
          "output": 7,
          "interpolation": "LINEAR"
        },
        {
          "input": 6,
          "output": 8,
          "interpolation": "LINEAR"
        },
        {
          "input": 6,
          "output": 9,
          "interpolation": "LINEAR"
        },
        {
          "input": 6,
          "output": 10,
          "interpolation": "LINEAR"
        },
        {
          "input": 6,
          "output": 11,
          "interpolation": "LINEAR"
        },
        {
          "input": 6,
          "output": 12,
          "interpolation": "LINEAR"
        },
        {
          "input": 6,
          "output": 13,
          "interpolation": "LINEAR"
        },
        {
          "input": 6,
          "output": 14,
          "interpolation": "LINEAR"
        },
        {
          "input": 6,
          "output": 15,
          "interpolation": "LINEAR"
        }
      ],
      "channels": [
        {
          "sampler": 0,
          "target": {
            "node": 1,
            "path": "rotation"
          }
        },
        {
          "sampler": 1,
          "target": {
            "node": 5,
            "path": "rotation"
          }
        },
        {
          "sampler": 2,
          "target": {
            "node": 6,
            "path": "rotation"
          }
        },
        {
          "sampler": 3,
          "target": {
            "node": 9,
            "path": "rotation"
          }
        },
        {
          "sampler": 4,
          "target": {
            "node": 10,
            "path": "rotation"
          }
        },
        {
          "sampler": 5,
          "target": {
            "node": 13,
            "path": "rotation"
          }
        },
        {
          "sampler": 6,
          "target": {
            "node": 14,
            "path": "rotation"
          }
        },
        {
          "sampler": 7,
          "target": {
            "node": 16,
            "path": "rotation"
          }
        },
        {
          "sampler": 8,
          "target": {
            "node": 17,
            "path": "rotation"
          }
        }
      ]
    },
    {
      "name": "walk",
      "samplers": [
        {
          "input": 16,
          "output": 17,
          "interpolation": "LINEAR"
        },
        {
          "input": 16,
          "output": 18,
          "interpolation": "LINEAR"
        },
        {
          "input": 16,
          "output": 19,
          "interpolation": "LINEAR"
        },
        {
          "input": 16,
          "output": 20,
          "interpolation": "LINEAR"
        },
        {
          "input": 16,
          "output": 21,
          "interpolation": "LINEAR"
        },
        {
          "input": 16,
          "output": 22,
          "interpolation": "LINEAR"
        },
        {
          "input": 16,
          "output": 23,
          "interpolation": "LINEAR"
        },
        {
          "input": 16,
          "output": 24,
          "interpolation": "LINEAR"
        },
        {
          "input": 16,
          "output": 25,
          "interpolation": "LINEAR"
        }
      ],
      "channels": [
        {
          "sampler": 0,
          "target": {
            "node": 1,
            "path": "rotation"
          }
        },
        {
          "sampler": 1,
          "target": {
            "node": 5,
            "path": "rotation"
          }
        },
        {
          "sampler": 2,
          "target": {
            "node": 6,
            "path": "rotation"
          }
        },
        {
          "sampler": 3,
          "target": {
            "node": 9,
            "path": "rotation"
          }
        },
        {
          "sampler": 4,
          "target": {
            "node": 10,
            "path": "rotation"
          }
        },
        {
          "sampler": 5,
          "target": {
            "node": 13,
            "path": "rotation"
          }
        },
        {
          "sampler": 6,
          "target": {
            "node": 14,
            "path": "rotation"
          }
        },
        {
          "sampler": 7,
          "target": {
            "node": 16,
            "path": "rotation"
          }
        },
        {
          "sampler": 8,
          "target": {
            "node": 17,
            "path": "rotation"
          }
        }
      ]
    }
  ],
  "meshes": [
    {
      "primitives": [
        {
          "attributes": {
            "POSITION": 0,
            "NORMAL": 1,
            "JOINTS_0": 2,
            "WEIGHTS_0": 3
          },
          "indices": 4,
          "material": 0
        }
      ]
    }
  ],
  "materials": [
    {
      "name": "Warden",
      "pbrMetallicRoughness": {
        "baseColorFactor": [
          0.6,
          0.2,
          0.2,
          1
        ],
        "metallicFactor": 0,
        "roughnessFactor": 0.7
      }
    }
  ],
  "buffers": [
    {
      "uri": "warden.bin",
      "byteLength": 20800
    }
  ],
  "bufferViews": [
    {
      "buffer": 0,
      "byteOffset": 0,
      "byteLength": 4320
    },
    {
      "buffer": 0,
      "byteOffset": 4320,
      "byteLength": 4320
    },
    {
      "buffer": 0,
      "byteOffset": 8640,
      "byteLength": 1440
    },
    {
      "buffer": 0,
      "byteOffset": 10080,
      "byteLength": 5760
    },
    {
      "buffer": 0,
      "byteOffset": 15840,
      "byteLength": 1080
    },
    {
      "buffer": 0,
      "byteOffset": 16920,
      "byteLength": 1216
    },
    {
      "buffer": 0,
      "byteOffset": 18136,
      "byteLength": 36
    },
    {
      "buffer": 0,
      "byteOffset": 18172,
      "byteLength": 144
    },
    {
      "buffer": 0,
      "byteOffset": 18316,
      "byteLength": 144
    },
    {
      "buffer": 0,
      "byteOffset": 18460,
      "byteLength": 144
    },
    {
      "buffer": 0,
      "byteOffset": 18604,
      "byteLength": 144
    },
    {
      "buffer": 0,
      "byteOffset": 18748,
      "byteLength": 144
    },
    {
      "buffer": 0,
      "byteOffset": 18892,
      "byteLength": 144
    },
    {
      "buffer": 0,
      "byteOffset": 19036,
      "byteLength": 144
    },
    {
      "buffer": 0,
      "byteOffset": 19180,
      "byteLength": 144
    },
    {
      "buffer": 0,
      "byteOffset": 19324,
      "byteLength": 144
    },
    {
      "buffer": 0,
      "byteOffset": 19468,
      "byteLength": 36
    },
    {
      "buffer": 0,
      "byteOffset": 19504,
      "byteLength": 144
    },
    {
      "buffer": 0,
      "byteOffset": 19648,
      "byteLength": 144
    },
    {
      "buffer": 0,
      "byteOffset": 19792,
      "byteLength": 144
    },
    {
      "buffer": 0,
      "byteOffset": 19936,
      "byteLength": 144
    },
    {
      "buffer": 0,
      "byteOffset": 20080,
      "byteLength": 144
    },
    {
      "buffer": 0,
      "byteOffset": 20224,
      "byteLength": 144
    },
    {
      "buffer": 0,
      "byteOffset": 20368,
      "byteLength": 144
    },
    {
      "buffer": 0,
      "byteOffset": 20512,
      "byteLength": 144
    },
    {
      "buffer": 0,
      "byteOffset": 20656,
      "byteLength": 144
    }
  ],
  "accessors": [
    {
      "bufferView": 0,
      "componentType": 5126,
      "count": 360,
      "type": "VEC3",
      "min": [
        -0.37,
        0.020000000000000004,
        -0.185
      ],
      "max": [
        0.37,
        1.7000000000000002,
        0.13
      ]
    },
    {
      "bufferView": 1,
      "componentType": 5126,
      "count": 360,
      "type": "VEC3"
    },
    {
      "bufferView": 2,
      "componentType": 5121,
      "count": 360,
      "type": "VEC4"
    },
    {
      "bufferView": 3,
      "componentType": 5126,
      "count": 360,
      "type": "VEC4"
    },
    {
      "bufferView": 4,
      "componentType": 5123,
      "count": 540,
      "type": "SCALAR"
    },
    {
      "bufferView": 5,
      "componentType": 5126,
      "count": 19,
      "type": "MAT4"
    },
    {
      "bufferView": 6,
      "componentType": 5126,
      "count": 9,
      "type": "SCALAR",
      "min": [
        0.0
      ],
      "max": [
        1.0
      ]
    },
    {
      "bufferView": 7,
      "componentType": 5126,
      "count": 9,
      "type": "VEC4"
    },
    {
      "bufferView": 8,
      "componentType": 5126,
      "count": 9,
      "type": "VEC4"
    },
    {
      "bufferView": 9,
      "componentType": 5126,
      "count": 9,
      "type": "VEC4"
    },
    {
      "bufferView": 10,
      "componentType": 5126,
      "count": 9,
      "type": "VEC4"
    },
    {
      "bufferView": 11,
      "componentType": 5126,
      "count": 9,
      "type": "VEC4"
    },
    {
      "bufferView": 12,
      "componentType": 5126,
      "count": 9,
      "type": "VEC4"
    },
    {
      "bufferView": 13,
      "componentType": 5126,
      "count": 9,
      "type": "VEC4"
    },
    {
      "bufferView": 14,
      "componentType": 5126,
      "count": 9,
      "type": "VEC4"
    },
    {
      "bufferView": 15,
      "componentType": 5126,
      "count": 9,
      "type": "VEC4"
    },
    {
      "bufferView": 16,
      "componentType": 5126,
      "count": 9,
      "type": "SCALAR",
      "min": [
        0.0
      ],
      "max": [
        1.0
      ]
    },
    {
      "bufferView": 17,
      "componentType": 5126,
      "count": 9,
      "type": "VEC4"
    },
    {
      "bufferView": 18,
      "componentType": 5126,
      "count": 9,
      "type": "VEC4"
    },
    {
      "bufferView": 19,
      "componentType": 5126,
      "count": 9,
      "type": "VEC4"
    },
    {
      "bufferView": 20,
      "componentType": 5126,
      "count": 9,
      "type": "VEC4"
    },
    {
      "bufferView": 21,
      "componentType": 5126,
      "count": 9,
      "type": "VEC4"
    },
    {
      "bufferView": 22,
      "componentType": 5126,
      "count": 9,
      "type": "VEC4"
    },
    {
      "bufferView": 23,
      "componentType": 5126,
      "count": 9,
      "type": "VEC4"
    },
    {
      "bufferView": 24,
      "componentType": 5126,
      "count": 9,
      "type": "VEC4"
    },
    {
      "bufferView": 25,
      "componentType": 5126,
      "count": 9,
      "type": "VEC4"
    }
  ]
}
